<svg width="955" height="955" viewBox="0 0 955 955" fill="none" xmlns="http://www.w3.org/2000/svg">
<path fill-rule="evenodd" clip-rule="evenodd" d="M955 477.497L954.967 479.895L954.87 482.293L954.708 484.688L954.482 487.081L954.193 489.471L953.843 491.856L953.434 494.237L952.966 496.612L952.443 498.981L951.867 501.343L951.24 503.698L950.565 506.045L949.846 508.384L949.086 510.714L948.288 513.036L947.455 515.349L946.592 517.652L945.703 519.947L944.79 522.232L943.859 524.509L942.913 526.777L941.956 529.037L940.993 531.29L938.101 538.005L937.149 540.231L936.21 542.453L935.287 544.671L934.383 546.886L933.501 549.098L932.644 551.31L931.815 553.521L931.017 555.732L930.252 557.946L929.521 560.162L928.826 562.381L928.169 564.605L927.551 566.834L926.973 569.069L926.436 571.312L925.939 573.562L925.482 575.822L925.066 578.09L924.69 580.369L924.352 582.658L924.052 584.958L923.788 587.269L923.558 589.592L923.36 591.927L923.192 594.273L923.052 596.631L922.937 599.001L922.843 601.382L922.768 603.774L922.709 606.176L922.661 608.588L922.623 611.009L922.556 615.876L922.521 618.32L922.479 620.768L922.427 623.221L922.361 625.677L922.278 628.134L922.172 630.592L922.041 633.048L921.882 635.501L921.69 637.95L921.462 640.392L921.196 642.827L920.888 645.253L920.535 647.667L920.135 650.07L919.685 652.457L919.183 654.83L918.628 657.185L918.017 659.522L917.349 661.838L916.624 664.133L915.839 666.405L914.995 668.654L914.092 670.878L913.128 673.076L912.106 675.247L911.024 677.392L909.884 679.508L908.688 681.596L907.435 683.656L906.129 685.687L904.771 687.69L903.362 689.664L901.906 691.61L900.405 693.529L898.861 695.42L897.277 697.285L895.656 699.125L894.003 700.941L892.318 702.733L890.608 704.504L888.873 706.255L887.119 707.987L885.348 709.702L883.565 711.401L881.772 713.087L879.974 714.762L878.173 716.428L874.579 719.739L872.792 721.388L871.016 723.037L869.254 724.687L867.508 726.34L865.782 727.999L864.077 729.665L862.397 731.34L860.743 733.027L859.116 734.728L857.519 736.443L855.953 738.175L854.419 739.925L852.918 741.696L851.451 743.487L850.017 745.3L848.617 747.136L847.252 748.996L845.919 750.881L844.62 752.791L843.352 754.725L842.115 756.685L840.908 758.671L839.728 760.681L838.575 762.715L837.446 764.773L836.339 766.853L835.251 768.956L834.181 771.078L833.126 773.219L832.083 775.378L831.049 777.552L830.022 779.739L828.998 781.937L826.948 786.36L825.915 788.578L824.875 790.799L823.822 793.018L822.755 795.234L821.671 797.443L820.566 799.643L819.437 801.831L818.284 804.004L817.101 806.159L815.889 808.293L814.643 810.404L813.362 812.489L812.045 814.545L810.69 816.571L809.294 818.562L807.857 820.518L806.378 822.436L804.856 824.314L803.289 826.15L801.679 827.943L800.024 829.691L798.324 831.393L796.58 833.049L794.793 834.656L792.961 836.215L791.088 837.724L789.173 839.185L787.218 840.598L785.224 841.961L783.192 843.277L781.125 844.546L779.025 845.769L776.893 846.947L774.731 848.082L772.542 849.176L770.327 850.23L768.091 851.246L765.834 852.227L763.559 853.176L761.269 854.094L758.967 854.985L756.655 855.852L754.336 856.697L752.011 857.524L749.684 858.335L747.357 859.135L745.033 859.925L740.4 861.493L738.095 862.277L735.802 863.065L733.521 863.861L731.254 864.667L729.003 865.486L726.769 866.322L724.554 867.177L722.358 868.053L720.182 868.953L718.027 869.88L715.894 870.834L713.782 871.819L711.693 872.836L709.625 873.885L707.58 874.969L705.556 876.087L703.552 877.242L701.57 878.432L699.607 879.658L697.662 880.92L695.735 882.218L693.825 883.55L691.93 884.916L690.048 886.315L688.178 887.744L686.319 889.203L684.469 890.689L682.626 892.2L680.788 893.734L678.954 895.288L677.122 896.859L675.289 898.444L673.455 900.04L669.773 903.251L667.922 904.86L666.062 906.466L664.191 908.066L662.308 909.655L660.412 911.231L658.5 912.789L656.572 914.326L654.626 915.837L652.661 917.321L650.677 918.772L648.672 920.188L646.645 921.565L644.597 922.901L642.526 924.192L640.432 925.435L638.315 926.629L636.175 927.77L634.012 928.857L631.826 929.887L629.617 930.86L627.386 931.773L625.133 932.626L622.859 933.418L620.565 934.149L618.251 934.817L615.919 935.424L613.569 935.97L611.202 936.455L608.82 936.88L606.423 937.246L604.014 937.556L601.593 937.81L599.161 938.011L596.721 938.162L594.272 938.264L591.818 938.32L589.358 938.333L586.895 938.307L584.429 938.245L581.962 938.149L579.495 938.025L577.029 937.875L574.565 937.703L572.105 937.513L569.649 937.309L567.197 937.095L564.752 936.875L559.882 936.432L557.459 936.217L555.043 936.01L552.637 935.817L550.239 935.639L547.849 935.481L545.469 935.345L543.098 935.234L540.736 935.152L538.382 935.1L536.037 935.082L533.7 935.098L531.37 935.151L529.048 935.242L526.732 935.373L524.422 935.543L522.117 935.755L519.816 936.007L517.519 936.301L515.226 936.635L512.934 937.01L510.644 937.424L508.354 937.876L506.065 938.364L503.774 938.888L501.481 939.444L499.186 940.03L496.888 940.644L494.586 941.284L492.28 941.945L489.968 942.626L487.651 943.322L485.329 944.031L482.999 944.747L478.321 946.191L475.971 946.91L473.614 947.622L471.25 948.323L468.879 949.009L466.501 949.676L464.117 950.32L461.726 950.936L459.329 951.522L456.927 952.073L454.521 952.587L452.11 953.059L449.695 953.486L447.277 953.866L444.858 954.195L442.437 954.471L440.015 954.691L437.594 954.854L435.174 954.958L432.757 955L430.342 954.98L427.932 954.897L425.527 954.749L423.127 954.538L420.734 954.261L418.349 953.921L415.972 953.516L413.605 953.049L411.247 952.52L408.899 951.93L406.563 951.282L404.238 950.576L401.925 949.816L399.624 949.004L397.336 948.142L395.061 947.233L392.798 946.281L390.549 945.289L388.312 944.259L386.087 943.197L383.875 942.104L381.675 940.986L379.486 939.846L377.308 938.687L375.14 937.515L372.981 936.332L370.831 935.143L364.424 931.577L362.299 930.401L360.177 929.237L358.058 928.089L355.94 926.96L353.822 925.853L351.703 924.771L349.581 923.717L347.456 922.692L345.326 921.699L343.189 920.74L341.046 919.817L338.894 918.93L336.733 918.081L334.561 917.271L332.379 916.5L330.184 915.769L327.976 915.077L325.755 914.424L323.519 913.809L321.27 913.232L319.005 912.69L316.725 912.184L314.431 911.71L312.121 911.267L309.796 910.853L307.457 910.465L305.103 910.101L302.736 909.757L300.356 909.431L297.964 909.12L295.56 908.82L293.146 908.528L285.857 907.663L283.415 907.367L280.971 907.06L278.525 906.74L276.079 906.402L273.635 906.043L271.194 905.66L268.76 905.249L266.333 904.806L263.916 904.329L261.51 903.815L259.118 903.261L256.741 902.663L254.381 902.021L252.041 901.331L249.721 900.591L247.424 899.801L245.152 898.957L242.905 898.059L240.685 897.107L238.494 896.098L236.333 895.033L234.203 893.912L232.105 892.734L230.039 891.5L228.006 890.211L226.008 888.867L224.043 887.469L222.113 886.019L220.217 884.519L218.355 882.969L216.527 881.373L214.732 879.732L212.969 878.049L211.238 876.327L209.537 874.567L207.866 872.774L206.222 870.95L204.605 869.097L203.013 867.221L201.443 865.322L199.894 863.406L198.365 861.475L196.852 859.532L195.353 857.582L193.867 855.626L192.391 853.669L189.458 849.764L187.997 847.821L186.536 845.889L185.072 843.97L183.604 842.067L182.128 840.182L180.643 838.318L179.147 836.477L177.636 834.66L176.109 832.869L174.565 831.105L173 829.371L171.414 827.666L169.806 825.991L168.172 824.348L166.514 822.735L164.828 821.154L163.116 819.604L161.376 818.085L159.607 816.595L157.81 815.135L155.984 813.703L154.13 812.297L152.248 810.917L150.339 809.56L148.404 808.224L146.444 806.909L144.46 805.611L142.454 804.328L140.428 803.058L138.382 801.799L136.321 800.547L134.244 799.301L132.156 798.057L127.955 795.566L125.846 794.313L123.737 793.051L121.63 791.778L119.527 790.492L117.433 789.189L115.35 787.867L113.28 786.523L111.229 785.156L109.197 783.763L107.189 782.342L105.208 780.891L103.256 779.409L101.336 777.893L99.4507 776.343L97.603 774.757L95.7952 773.133L94.0295 771.472L92.308 769.773L90.6326 768.034L89.005 766.256L87.4266 764.439L85.8987 762.582L84.4224 760.686L82.9984 758.752L81.6273 756.78L80.3093 754.771L79.0445 752.726L77.8327 750.645L76.6735 748.532L75.566 746.386L74.5093 744.21L73.5023 742.005L72.5434 739.774L71.6309 737.517L70.7629 735.237L69.9374 732.937L69.1518 730.618L68.4039 728.282L67.6907 725.932L67.0095 723.57L66.3573 721.198L65.7309 718.819L65.127 716.434L64.5425 714.046L63.9737 711.658L63.4173 709.27L62.8698 706.885L61.7874 702.132L61.2456 699.768L60.6987 697.413L60.1435 695.071L59.5767 692.74L58.9952 690.424L58.3959 688.124L57.776 685.839L57.1328 683.571L56.4637 681.321L55.7665 679.089L55.039 676.875L54.2794 674.679L53.486 672.502L52.6575 670.343L51.7927 668.203L50.8907 666.08L49.951 663.974L48.9732 661.885L47.9573 659.811L46.9036 657.753L45.8126 655.708L44.6851 653.676L43.5223 651.655L42.3253 649.645L41.096 647.643L39.8362 645.649L38.5479 643.661L37.2337 641.678L35.896 639.698L34.5377 637.719L33.1617 635.741L31.7713 633.761L30.3697 631.778L27.547 627.798L26.1332 625.798L24.7228 623.79L23.3195 621.771L21.9272 619.742L20.5498 617.701L19.1912 615.646L17.8552 613.578L16.5455 611.495L15.2659 609.396L14.02 607.281L12.8111 605.15L11.6428 603.001L10.5181 600.835L9.44009 598.651L8.41155 596.45L7.43509 594.231L6.51306 591.995L5.6476 589.741L4.84058 587.47L4.09361 585.183L3.40801 582.881L2.78482 580.562L2.22481 578.229L1.72842 575.883L1.29581 573.523L0.926841 571.151L0.621068 568.768L0.377749 566.375L0.195845 563.973L0.0740317 561.562L0.0107007 559.145L0.00397169 556.722L0.0517018 554.294L0.151498 551.862L0.30073 549.427L0.496548 546.991L0.735893 544.554L1.01552 542.118L1.33202 539.683L1.68182 537.25L2.06124 534.82L2.46646 532.393L2.89361 529.971L3.33873 527.554L3.79784 525.143L4.26693 522.738L4.74198 520.339L5.69418 515.562L6.16355 513.184L6.6234 510.813L7.07012 508.45L7.5002 506.093L7.91033 503.744L8.29735 501.4L8.65831 499.064L8.99049 496.733L9.29137 494.407L9.55871 492.087L9.79052 489.77L9.98506 487.458L10.1409 485.148L10.2569 482.841L10.3321 480.536L10.3661 478.231L10.3586 475.927L10.3096 473.622L10.2194 471.316L10.0889 469.008L9.91885 466.698L9.71061 464.384L9.4657 462.066L9.18593 459.744L8.87342 457.417L8.53049 455.083L8.15974 452.744L7.76399 450.399L7.34625 448.047L6.90973 445.688L6.45784 443.322L5.9941 440.948L5.5222 438.568L4.56913 433.786L4.09578 431.384L3.62985 428.977L3.17535 426.564L2.73629 424.145L2.31665 421.721L1.92035 419.293L1.55124 416.862L1.21311 414.428L0.909589 411.992L0.644194 409.556L0.420281 407.119L0.241028 404.683L0.10942 402.25L0.0282286 399.819L0 397.393L0.0270378 394.971L0.111391 392.556L0.254842 390.149L0.458898 387.75L0.724779 385.36L1.05342 382.981L1.44545 380.614L1.9012 378.259L2.42072 375.917L3.00373 373.589L3.64967 371.276L4.35768 368.979L5.12662 366.698L5.95505 364.434L6.84127 362.186L7.78331 359.956L8.77896 357.743L9.82577 355.549L10.9211 353.371L12.0619 351.212L13.2454 349.069L14.4681 346.944L15.7266 344.835L17.0176 342.742L18.3373 340.664L19.6819 338.601L21.0478 336.551L22.431 334.515L23.8277 332.489L25.234 330.475L26.6461 328.469L30.8794 322.496L32.2774 320.515L33.663 318.535L35.0329 316.557L36.384 314.578L37.7135 312.597L39.0186 310.612L40.2968 308.622L41.5458 306.626L42.7636 304.621L43.9483 302.607L45.0985 300.583L46.2129 298.546L47.2904 296.496L48.3304 294.432L49.3325 292.353L50.2964 290.258L51.2224 288.146L52.1108 286.017L52.9623 283.87L53.778 281.705L54.5589 279.521L55.3067 277.319L56.0229 275.098L56.7097 272.859L57.3691 270.602L58.0035 268.328L58.6157 266.038L59.2082 263.731L59.784 261.41L60.3462 259.075L60.898 256.728L61.4426 254.37L63.0677 247.244L63.618 244.858L64.1785 242.47L64.7526 240.081L65.3438 237.694L65.9554 235.311L66.5908 232.935L67.2532 230.566L67.9457 228.208L68.6712 225.863L69.4325 223.533L70.2322 221.221L71.0729 218.927L71.9568 216.656L72.8859 214.408L73.8621 212.186L74.887 209.991L75.962 207.826L77.0882 205.692L78.2664 203.59L79.4974 201.523L80.7815 199.49L82.1188 197.495L83.5091 195.536L84.9522 193.616L86.4473 191.734L87.9937 189.892L89.5901 188.089L91.2352 186.325L92.9276 184.601L94.6654 182.915L96.4466 181.268L98.2691 179.658L100.131 178.085L102.029 176.547L103.961 175.044L105.924 173.573L107.915 172.133L109.932 170.723L111.971 169.339L114.03 167.981L116.104 166.646L118.192 165.331L120.29 164.034L122.394 162.753L124.503 161.484L126.612 160.226L132.915 156.486L134.999 155.242L137.071 153.994L139.127 152.74L141.166 151.477L143.185 150.202L145.183 148.914L147.158 147.61L149.11 146.288L151.035 144.945L152.934 143.58L154.806 142.19L156.65 140.775L158.465 139.333L160.252 137.862L162.01 136.362L163.741 134.831L165.443 133.27L167.119 131.678L168.768 130.054L170.392 128.399L171.993 126.714L173.57 124.998L175.127 123.253L176.665 121.479L178.186 119.679L179.691 117.852L181.184 116.003L182.665 114.131L184.138 112.239L185.604 110.33L187.066 108.406L188.527 106.47L191.454 102.571L192.925 100.615L194.405 98.6582L195.895 96.7041L197.399 94.7561L198.918 92.8173L200.454 90.8912L202.01 88.981L203.588 87.0902L205.189 85.2219L206.816 83.3795L208.469 81.566L210.151 79.7846L211.863 78.0383L213.605 76.3297L215.38 74.6618L217.187 73.0369L219.027 71.4574L220.901 69.9255L222.81 68.4431L224.752 67.012L226.729 65.6336L228.74 64.3092L230.785 63.0399L232.862 61.8263L234.972 60.669L237.114 59.5682L239.286 58.5239L241.488 57.5357L243.717 56.6031L245.974 55.7252L248.255 54.901L250.561 54.129L252.888 53.4077L255.236 52.7351L257.602 52.1093L259.985 51.5279L262.382 50.9884L264.792 50.488L267.213 50.024L269.643 49.5932L272.08 49.1924L274.521 48.8183L276.966 48.4674L279.413 48.1364L281.858 47.8215L284.302 47.5191L286.742 47.2255L291.604 46.6503L294.023 46.3614L296.434 46.0668L298.833 45.7631L301.221 45.447L303.597 45.115L305.959 44.7643L308.308 44.3917L310.642 43.9945L312.961 43.5702L315.265 43.1164L317.555 42.6309L319.829 42.1118L322.088 41.5576L324.332 40.9667L326.562 40.3381L328.779 39.6709L330.982 38.9646L333.172 38.2189L335.351 37.4338L337.518 36.6097L339.676 35.7471L341.825 34.847L343.966 33.9105L346.099 32.939L348.228 31.9343L350.352 30.8984L352.472 29.8335L354.591 28.7421L356.709 27.6269L358.827 26.4908L360.947 25.3368L363.07 24.1683L365.196 22.9887L369.466 20.6107L371.611 19.4197L373.764 18.2324L375.925 17.0529L378.097 15.8851L380.279 14.7328L382.472 13.6001L384.677 12.4908L386.893 11.4088L389.122 10.3577L391.364 9.34133L393.618 8.36309L395.885 7.42639L398.165 6.53441L400.458 5.69018L402.763 4.8965L405.08 4.15598L407.409 3.47095L409.75 2.84354L412.101 2.27558L414.463 1.76864L416.834 1.32403L419.214 0.942727L421.602 0.625445L423.997 0.372583L426.399 0.184242L428.806 0.0602169L431.218 0L433.634 0.0027832L436.052 0.0674626L438.473 0.192644L440.894 0.376653L443.315 0.617541L445.736 0.913099L448.155 1.26087L450.572 1.65816L452.985 2.10206L455.395 2.58946L457.8 3.11706L460.2 3.6814L462.594 4.27887L464.983 4.90574L467.365 5.55818L469.74 6.23227L472.109 6.92405L474.47 7.6295L476.824 8.3446L479.172 9.06536L483.845 10.508L486.172 11.2222L488.493 11.9265L490.808 12.6175L493.117 13.2916L495.422 13.9455L497.723 14.5762L500.02 15.1808L502.314 15.7564L504.605 16.3008L506.896 16.8116L509.185 17.287L511.475 17.7253L513.765 18.1251L516.058 18.4852L518.352 18.8049L520.65 19.0837L522.953 19.3213L525.259 19.5179L527.572 19.6739L529.89 19.7899L532.215 19.867L534.547 19.9065L536.887 19.9099L539.236 19.879L541.592 19.8161L543.958 19.7233L546.332 19.6034L548.715 19.459L551.108 19.2933L553.509 19.1094L555.919 18.9106L558.337 18.7005L560.764 18.4827L565.639 18.0388L568.086 17.8205L570.539 17.6098L572.997 17.4107L575.459 17.227L577.924 17.0626L580.39 16.9213L582.857 16.807L585.324 16.7233L587.789 16.6736L590.251 16.6615L592.709 16.6901L595.162 16.7626L597.607 16.8817L600.045 17.0501L602.473 17.2703L604.89 17.5445L607.294 17.8746L609.686 18.2622L612.063 18.7089L614.423 19.2157L616.767 19.7834L619.093 20.4127L621.4 21.1037L623.687 21.8566L625.954 22.6708L628.199 23.5459L630.422 24.481L632.622 25.4748L634.8 26.5259L636.955 27.6327L639.086 28.7931L641.195 30.0051L643.28 31.2661L645.343 32.5735L647.383 33.9246L649.402 35.3162L651.399 36.7454L653.377 38.2087L655.334 39.7027L657.274 41.2239L659.196 42.7688L661.102 44.3336L662.993 45.9146L664.872 47.5082L666.738 49.1105L668.595 50.718L670.443 52.327L674.121 55.5352L675.954 57.1276L677.786 58.7078L679.619 60.2728L681.455 61.8195L683.294 63.3453L685.139 64.8476L686.993 66.324L688.855 67.7724L690.729 69.1909L692.616 70.5778L694.516 71.9317L696.433 73.2516L698.366 74.5364L700.317 75.7856L702.287 76.9988L704.277 78.176L706.288 79.3173L708.32 80.4231L710.373 81.4942L712.448 82.5316L714.546 83.5364L716.666 84.5101L718.807 85.4544L720.969 86.3711L723.152 87.2624L725.356 88.1306L727.578 88.9781L729.818 89.8075L732.075 90.6217L734.347 91.4236L736.633 92.2161L738.93 93.0023L741.238 93.7855L745.876 95.3556L748.202 96.149L750.529 96.9524L752.855 97.769L755.178 98.6019L757.495 99.4544L759.804 100.33L762.102 101.23L764.387 102.159L766.655 103.119L768.905 104.113L771.134 105.143L773.339 106.211L775.519 107.319L777.67 108.47L779.791 109.664L781.88 110.903L783.934 112.189L785.952 113.522L787.932 114.904L789.873 116.334L791.773 117.813L793.631 119.34L795.447 120.917L797.218 122.541L798.946 124.213L800.63 125.932L802.269 127.697L803.863 129.506L805.413 131.357L806.92 133.25L808.383 135.182L809.805 137.151L811.186 139.155L812.528 141.192L813.831 143.259L815.099 145.354L816.332 147.474L817.534 149.616L818.706 151.778L819.85 153.956L820.969 156.149L822.067 158.352L823.145 160.564L824.206 162.782L825.254 165.002L826.291 167.222L829.369 173.856L830.394 176.051L831.423 178.234L832.46 180.402L833.508 182.555L834.568 184.689L835.644 186.804L836.738 188.899L837.853 190.971L838.99 193.021L840.153 195.046L841.342 197.047L842.56 199.023L843.808 200.974L845.087 202.9L846.399 204.8L847.743 206.676L849.122 208.528L850.534 210.355L851.98 212.16L853.459 213.944L854.972 215.707L856.518 217.45L858.095 219.176L859.703 220.886L861.34 222.581L863.004 224.264L864.693 225.936L866.406 227.599L868.14 229.255L869.892 230.907L871.659 232.556L873.44 234.205L878.827 239.17L880.627 240.839L882.424 242.518L884.213 244.209L885.993 245.914L887.758 247.634L889.505 249.373L891.231 251.131L892.933 252.909L894.607 254.71L896.249 256.534L897.856 258.383L899.426 260.258L900.955 262.159L902.44 264.087L903.879 266.044L905.27 268.028L906.609 270.041L907.896 272.083L909.128 274.153L910.305 276.251L911.423 278.378L912.484 280.532L913.485 282.713L914.426 284.921L915.308 287.154L916.131 289.411L916.894 291.692L917.598 293.995L918.245 296.319L918.836 298.662L919.372 301.024L919.854 303.402L920.286 305.795L920.668 308.202L921.005 310.621L921.298 313.05L921.549 315.488L921.764 317.933L921.943 320.384L922.092 322.838L922.213 325.294L922.31 327.752L922.387 330.209L922.448 332.664L922.495 335.115L922.534 337.562L922.601 342.438L922.636 344.865L922.677 347.283L922.729 349.692L922.793 352.09L922.875 354.478L922.976 356.855L923.1 359.221L923.25 361.574L923.428 363.917L923.638 366.247L923.88 368.565L924.157 370.873L924.47 373.169L924.822 375.454L925.213 377.729L925.643 379.994L926.115 382.25L926.626 384.497L927.179 386.737L927.771 388.97L928.403 391.198L929.074 393.42L929.782 395.638L930.526 397.852L931.303 400.065L932.113 402.276L932.952 404.487L933.818 406.699L934.709 408.912L935.62 411.128L936.549 413.347L937.494 415.571L938.449 417.799L940.377 422.274L941.343 424.521L942.304 426.776L943.258 429.039L944.199 431.311L945.124 433.591L946.028 435.88L946.909 438.177L947.761 440.484L948.581 442.8L949.366 445.125L950.112 447.458L950.815 449.8L951.473 452.15L952.082 454.508L952.639 456.872L953.142 459.244L953.589 461.621L953.977 464.004L954.305 466.391L954.571 468.782L954.774 471.176L954.913 473.572L954.987 475.97L955 477.497Z" fill="#984428"/>
<path fill-rule="evenodd" clip-rule="evenodd" d="M942 477.497L941.968 479.83L941.873 482.162L941.716 484.492L941.496 486.82L941.215 489.145L940.875 491.465L940.476 493.781L940.021 496.092L939.512 498.396L938.952 500.694L938.342 502.985L937.686 505.268L936.986 507.543L936.247 509.81L935.47 512.068L934.66 514.318L933.821 516.559L932.956 518.791L932.068 521.014L931.162 523.229L930.242 525.436L929.311 527.634L928.374 529.825L925.561 536.358L924.635 538.523L923.722 540.685L922.824 542.842L921.944 544.997L921.086 547.149L920.253 549.3L919.447 551.451L918.67 553.603L917.925 555.756L917.214 557.911L916.539 560.07L915.9 562.233L915.299 564.402L914.736 566.576L914.214 568.758L913.73 570.947L913.286 573.145L912.881 575.352L912.515 577.568L912.187 579.795L911.895 582.032L911.638 584.281L911.414 586.54L911.222 588.811L911.058 591.094L910.922 593.388L910.81 595.693L910.719 598.009L910.646 600.336L910.588 602.673L910.542 605.019L910.504 607.375L910.439 612.109L910.405 614.486L910.365 616.868L910.314 619.254L910.25 621.643L910.168 624.033L910.066 626.424L909.939 628.813L909.784 631.199L909.597 633.581L909.375 635.957L909.116 638.326L908.817 640.685L908.473 643.034L908.084 645.371L907.646 647.694L907.158 650.002L906.618 652.293L906.024 654.566L905.374 656.819L904.668 659.052L903.905 661.262L903.084 663.45L902.205 665.613L901.268 667.751L900.273 669.864L899.221 671.95L898.112 674.008L896.948 676.04L895.73 678.044L894.46 680.02L893.138 681.968L891.768 683.888L890.351 685.781L888.891 687.647L887.389 689.487L885.848 691.302L884.272 693.091L882.663 694.857L881.025 696.601L879.361 698.324L877.673 700.027L875.967 701.712L874.245 703.38L872.51 705.033L870.766 706.674L869.016 708.303L867.265 709.923L863.769 713.144L862.03 714.748L860.302 716.352L858.588 717.957L856.89 719.565L855.211 721.179L853.553 722.799L851.918 724.429L850.309 726.07L848.727 727.724L847.173 729.393L845.65 731.078L844.158 732.781L842.698 734.503L841.27 736.245L839.875 738.009L838.514 739.795L837.185 741.605L835.889 743.438L834.625 745.296L833.391 747.178L832.188 749.085L831.014 751.016L829.866 752.971L828.744 754.95L827.646 756.952L826.569 758.976L825.511 761.021L824.471 763.085L823.444 765.168L822.43 767.268L821.424 769.383L820.424 771.51L819.428 773.649L817.434 777.951L816.43 780.109L815.417 782.269L814.394 784.428L813.356 786.583L812.301 788.733L811.226 790.873L810.128 793.001L809.006 795.114L807.856 797.211L806.676 799.287L805.464 801.341L804.219 803.369L802.937 805.369L801.618 807.339L800.261 809.277L798.863 811.18L797.424 813.045L795.943 814.872L794.42 816.658L792.853 818.402L791.243 820.103L789.59 821.759L787.893 823.369L786.154 824.932L784.373 826.448L782.55 827.917L780.688 829.339L778.786 830.712L776.846 832.039L774.87 833.319L772.859 834.553L770.816 835.743L768.742 836.889L766.638 837.993L764.509 839.057L762.355 840.082L760.179 841.071L757.984 842.025L755.771 842.948L753.544 843.842L751.304 844.708L749.055 845.551L746.799 846.373L744.537 847.177L742.274 847.967L740.01 848.744L737.749 849.513L733.242 851.039L731 851.801L728.769 852.568L726.551 853.342L724.346 854.126L722.156 854.923L719.983 855.736L717.828 856.568L715.691 857.42L713.575 858.296L711.479 859.197L709.403 860.126L707.349 861.084L705.317 862.073L703.306 863.093L701.316 864.148L699.347 865.236L697.398 866.359L695.469 867.516L693.56 868.709L691.668 869.937L689.794 871.199L687.935 872.496L686.092 873.824L684.261 875.185L682.442 876.576L680.634 877.995L678.834 879.44L677.041 880.91L675.253 882.402L673.469 883.913L671.687 885.441L669.904 886.983L668.12 888.536L664.538 891.66L662.738 893.225L660.928 894.788L659.109 896.344L657.277 897.89L655.432 899.423L653.572 900.938L651.697 902.433L649.804 903.904L647.892 905.346L645.962 906.758L644.012 908.136L642.04 909.475L640.048 910.775L638.033 912.03L635.996 913.24L633.937 914.401L631.855 915.511L629.751 916.568L627.625 917.571L625.476 918.517L623.306 919.406L621.114 920.235L618.902 921.006L616.67 921.716L614.419 922.367L612.15 922.957L609.864 923.488L607.562 923.96L605.244 924.373L602.913 924.73L600.569 925.031L598.214 925.278L595.849 925.474L593.475 925.62L591.093 925.719L588.705 925.774L586.313 925.787L583.916 925.761L581.518 925.701L579.118 925.608L576.718 925.487L574.319 925.341L571.923 925.174L569.529 924.989L567.14 924.791L564.755 924.583L562.377 924.369L557.639 923.938L555.282 923.728L552.932 923.527L550.591 923.339L548.258 923.166L545.934 923.012L543.619 922.88L541.312 922.772L539.014 922.692L536.725 922.642L534.443 922.624L532.17 922.64L529.904 922.691L527.644 922.78L525.391 922.907L523.144 923.073L520.902 923.279L518.664 923.524L516.43 923.81L514.198 924.135L511.969 924.5L509.741 924.902L507.514 925.342L505.287 925.817L503.058 926.326L500.828 926.867L498.596 927.438L496.36 928.035L494.121 928.657L491.877 929.301L489.629 929.963L487.375 930.64L485.115 931.329L482.849 932.026L478.298 933.431L476.012 934.131L473.72 934.823L471.42 935.505L469.114 936.172L466.8 936.821L464.481 937.447L462.155 938.047L459.824 938.617L457.488 939.153L455.146 939.652L452.801 940.112L450.452 940.527L448.1 940.897L445.746 941.217L443.391 941.485L441.036 941.7L438.681 941.858L436.327 941.959L433.975 942L431.626 941.981L429.282 941.9L426.942 941.756L424.608 941.55L422.28 941.281L419.96 940.95L417.647 940.557L415.344 940.102L413.05 939.587L410.767 939.014L408.494 938.383L406.232 937.697L403.982 936.957L401.744 936.167L399.518 935.328L397.305 934.445L395.104 933.518L392.916 932.553L390.74 931.552L388.576 930.518L386.424 929.455L384.284 928.367L382.154 927.258L380.035 926.131L377.927 924.991L375.827 923.84L373.735 922.683L367.502 919.214L365.435 918.07L363.371 916.938L361.31 915.822L359.25 914.724L357.189 913.647L355.128 912.594L353.064 911.568L350.996 910.571L348.924 909.606L346.846 908.673L344.761 907.774L342.668 906.912L340.565 906.086L338.453 905.298L336.329 904.549L334.194 903.837L332.047 903.164L329.886 902.529L327.712 901.931L325.523 901.369L323.32 900.842L321.103 900.349L318.87 899.888L316.623 899.458L314.362 899.055L312.086 898.677L309.797 898.323L307.494 897.989L305.179 897.672L302.851 897.369L300.513 897.077L298.165 896.793L291.074 895.952L288.699 895.664L286.321 895.366L283.942 895.054L281.562 894.725L279.185 894.376L276.811 894.003L274.443 893.603L272.082 893.173L269.731 892.709L267.391 892.208L265.063 891.669L262.751 891.088L260.456 890.463L258.179 889.792L255.923 889.073L253.688 888.303L251.477 887.483L249.292 886.61L247.133 885.683L245.001 884.702L242.899 883.666L240.827 882.575L238.785 881.429L236.776 880.229L234.799 878.975L232.855 877.667L230.944 876.308L229.066 874.897L227.222 873.438L225.411 871.93L223.632 870.378L221.886 868.781L220.171 867.144L218.487 865.469L216.833 863.757L215.207 862.013L213.608 860.238L212.035 858.436L210.486 856.61L208.959 854.764L207.452 852.9L205.964 851.021L204.492 849.131L203.035 847.234L201.589 845.332L200.153 843.428L197.3 839.629L195.879 837.739L194.457 835.859L193.034 833.992L191.605 832.141L190.17 830.308L188.725 828.495L187.269 826.703L185.8 824.936L184.315 823.194L182.812 821.478L181.29 819.791L179.748 818.132L178.183 816.504L176.594 814.905L174.98 813.336L173.341 811.798L171.675 810.29L169.982 808.812L168.261 807.364L166.513 805.943L164.737 804.549L162.934 803.182L161.103 801.839L159.246 800.519L157.364 799.22L155.457 797.941L153.527 796.678L151.576 795.43L149.605 794.195L147.615 792.97L145.609 791.752L143.59 790.54L141.558 789.33L137.471 786.906L135.42 785.687L133.368 784.46L131.318 783.222L129.273 781.971L127.236 780.703L125.209 779.417L123.196 778.11L121.2 776.78L119.224 775.425L117.271 774.043L115.344 772.632L113.445 771.19L111.577 769.715L109.743 768.207L107.946 766.664L106.187 765.085L104.47 763.469L102.795 761.815L101.165 760.124L99.5818 758.395L98.0464 756.627L96.5601 754.821L95.124 752.977L93.7387 751.095L92.4049 749.176L91.1229 747.222L89.8925 745.232L88.7137 743.209L87.586 741.153L86.5087 739.066L85.4808 736.949L84.5012 734.804L83.5684 732.633L82.6807 730.438L81.8364 728.22L81.0333 725.982L80.2692 723.726L79.5415 721.454L78.8478 719.168L78.1852 716.871L77.5507 714.563L76.9413 712.249L76.3539 709.929L75.7853 707.606L75.232 705.283L74.6908 702.96L74.1582 700.64L73.1053 696.017L72.5782 693.717L72.0462 691.426L71.5061 689.147L70.9548 686.88L70.3891 684.628L69.8061 682.389L69.203 680.167L68.5773 677.961L67.9265 675.772L67.2482 673.6L66.5406 671.447L65.8016 669.311L65.0299 667.193L64.2239 665.093L63.3826 663.011L62.5052 660.946L61.591 658.897L60.6399 656.865L59.6517 654.848L58.6267 652.845L57.5654 650.856L56.4686 648.879L55.3374 646.914L54.173 644.958L52.9772 643.011L51.7516 641.071L50.4985 639.138L49.22 637.208L47.9187 635.282L46.5974 633.357L45.2589 631.433L43.9063 629.507L42.5429 627.578L39.797 623.706L38.4217 621.761L37.0497 619.807L35.6846 617.844L34.3302 615.87L32.9904 613.884L31.6687 611.885L30.3691 609.873L29.0951 607.847L27.8503 605.805L26.6383 603.748L25.4624 601.674L24.3258 599.584L23.2318 597.477L22.1831 595.353L21.1825 593.212L20.2327 591.053L19.3357 588.878L18.4938 586.685L17.7088 584.477L16.9822 582.252L16.3152 580.012L15.709 577.756L15.1642 575.487L14.6814 573.204L14.2605 570.909L13.9016 568.602L13.6042 566.283L13.3675 563.955L13.1905 561.619L13.072 559.274L13.0104 556.922L13.0039 554.565L13.0503 552.203L13.1474 549.837L13.2925 547.469L13.483 545.099L13.7159 542.729L13.9879 540.359L14.2958 537.99L14.636 535.623L15.0051 533.259L15.3993 530.899L15.8148 528.543L16.2478 526.192L16.6944 523.846L17.1508 521.506L17.6129 519.173L18.5392 514.526L18.9957 512.213L19.4431 509.906L19.8776 507.607L20.296 505.315L20.695 503.029L21.0715 500.75L21.4226 498.477L21.7457 496.209L22.0384 493.947L22.2985 491.689L22.524 489.436L22.7132 487.187L22.8648 484.94L22.9776 482.696L23.0508 480.453L23.0839 478.211L23.0765 475.97L23.0289 473.728L22.9412 471.485L22.8142 469.24L22.6488 466.992L22.4462 464.741L22.208 462.486L21.9358 460.227L21.6318 457.963L21.2982 455.694L20.9376 453.418L20.5526 451.137L20.1462 448.849L19.7216 446.554L19.282 444.252L18.8309 441.943L18.3719 439.628L17.4447 434.976L16.9843 432.64L16.531 430.298L16.0889 427.95L15.6618 425.597L15.2536 423.24L14.8681 420.878L14.509 418.513L14.1801 416.145L13.8848 413.776L13.6267 411.405L13.4088 409.035L13.2345 406.666L13.1064 404.298L13.0275 401.934L13 399.573L13.0263 397.218L13.1084 394.869L13.2479 392.527L13.4464 390.193L13.705 387.869L14.0247 385.554L14.4061 383.251L14.8494 380.96L15.3548 378.682L15.922 376.418L16.5503 374.168L17.239 371.934L17.987 369.715L18.7929 367.512L19.655 365.326L20.5714 363.156L21.54 361.004L22.5583 358.869L23.6237 356.751L24.7336 354.65L25.8848 352.566L27.0742 350.498L28.2985 348.447L29.5543 346.411L30.838 344.389L32.1461 342.383L33.4747 340.389L34.8203 338.407L36.179 336.437L37.547 334.478L38.9207 332.527L43.0387 326.716L44.3986 324.788L45.7465 322.863L47.0791 320.939L48.3935 319.014L49.6868 317.087L50.9563 315.156L52.1997 313.22L53.4147 311.278L54.5993 309.328L55.7518 307.369L56.8707 305.399L57.9547 303.418L59.0029 301.424L60.0146 299.416L60.9894 297.394L61.9271 295.356L62.8278 293.301L63.6921 291.23L64.5204 289.142L65.3139 287.035L66.0735 284.911L66.8009 282.768L67.4977 280.608L68.1657 278.43L68.8072 276.235L69.4244 274.023L70.0198 271.795L70.5962 269.551L71.1564 267.293L71.7033 265.022L72.24 262.738L72.7699 260.444L74.3507 253.513L74.886 251.192L75.4312 248.869L75.9897 246.545L76.5648 244.223L77.1598 241.905L77.7779 239.593L78.4222 237.289L79.0958 234.995L79.8016 232.714L80.5421 230.448L81.3201 228.198L82.1379 225.967L82.9978 223.757L83.9016 221.571L84.8512 219.409L85.8482 217.274L86.8939 215.168L87.9894 213.092L89.1356 211.047L90.3331 209.036L91.5822 207.059L92.8831 205.118L94.2356 203.213L95.6394 201.345L97.0938 199.514L98.598 197.722L100.151 195.968L101.751 194.252L103.398 192.575L105.088 190.935L106.821 189.333L108.594 187.767L110.405 186.236L112.251 184.741L114.13 183.278L116.04 181.847L117.977 180.447L119.939 179.075L121.923 177.729L123.925 176.408L125.943 175.109L127.974 173.83L130.015 172.568L132.062 171.322L134.113 170.088L136.165 168.864L142.297 165.226L144.324 164.015L146.339 162.801L148.339 161.581L150.322 160.353L152.287 159.113L154.23 157.86L156.152 156.592L158.05 155.305L159.923 153.999L161.771 152.671L163.591 151.319L165.385 149.943L167.151 148.539L168.889 147.109L170.6 145.649L172.283 144.16L173.939 142.642L175.569 141.093L177.173 139.513L178.753 137.903L180.31 136.264L181.845 134.595L183.36 132.897L184.856 131.172L186.335 129.42L187.799 127.644L189.251 125.844L190.692 124.024L192.124 122.183L193.551 120.326L194.973 118.455L196.394 116.571L199.242 112.779L200.673 110.876L202.112 108.972L203.562 107.071L205.025 105.176L206.502 103.29L207.997 101.417L209.51 99.5585L211.045 97.7191L212.603 95.9017L214.185 94.1095L215.794 92.3454L217.43 90.6125L219.095 88.9137L220.79 87.2517L222.516 85.6291L224.274 84.0484L226.064 82.512L227.887 81.0218L229.744 79.5797L231.634 78.1876L233.557 76.8467L235.513 75.5584L237.502 74.3236L239.523 73.1431L241.575 72.0173L243.658 70.9464L245.771 69.9305L247.913 68.9693L250.082 68.0621L252.277 67.2081L254.497 66.4063L256.739 65.6553L259.003 64.9536L261.287 64.2994L263.589 63.6906L265.906 63.1251L268.238 62.6002L270.583 62.1135L272.938 61.6621L275.302 61.243L277.672 60.8531L280.047 60.4892L282.426 60.1479L284.805 59.8258L287.185 59.5195L289.562 59.2253L291.935 58.9398L296.665 58.3802L299.019 58.0992L301.363 57.8126L303.697 57.5172L306.02 57.2097L308.331 56.8868L310.629 56.5456L312.914 56.1831L315.184 55.7968L317.441 55.384L319.682 54.9425L321.909 54.4703L324.121 53.9653L326.319 53.4261L328.502 52.8513L330.672 52.2399L332.828 51.5908L334.971 50.9038L337.101 50.1784L339.221 49.4147L341.329 48.613L343.428 47.7739L345.519 46.8983L347.601 45.9873L349.677 45.0422L351.747 44.0649L353.813 43.0572L355.876 42.0213L357.937 40.9596L359.997 39.8748L362.058 38.7695L364.12 37.647L366.185 36.5103L368.254 35.3629L372.407 33.0495L374.494 31.8909L376.588 30.7361L378.691 29.5887L380.803 28.4526L382.926 27.3317L385.059 26.2298L387.204 25.1507L389.36 24.0982L391.528 23.0757L393.709 22.087L395.902 21.1354L398.107 20.2242L400.325 19.3565L402.555 18.5353L404.797 17.7632L407.052 17.0428L409.317 16.3765L411.594 15.7661L413.882 15.2136L416.179 14.7205L418.486 14.288L420.801 13.9171L423.124 13.6084L425.454 13.3624L427.79 13.1792L430.132 13.0586L432.478 13L434.828 13.0027L437.181 13.0656L439.535 13.1874L441.891 13.3664L444.246 13.6007L446.601 13.8882L448.954 14.2265L451.305 14.613L453.652 15.0448L455.996 15.519L458.336 16.0322L460.671 16.5812L463 17.1624L465.323 17.7722L467.641 18.4069L469.951 19.0626L472.255 19.7355L474.553 20.4218L476.843 21.1174L479.126 21.8186L483.673 23.2219L485.936 23.9166L488.194 24.6018L490.446 25.274L492.692 25.9297L494.934 26.5659L497.172 27.1794L499.407 27.7675L501.638 28.3275L503.867 28.857L506.095 29.3539L508.323 29.8164L510.55 30.2427L512.778 30.6316L515.008 30.9819L517.24 31.2929L519.476 31.5641L521.715 31.7953L523.959 31.9865L526.208 32.1382L528.464 32.2511L530.725 32.3261L532.994 32.3645L535.271 32.3678L537.555 32.3378L539.847 32.2766L542.148 32.1864L544.458 32.0697L546.777 31.9293L549.104 31.7681L551.44 31.5891L553.784 31.3958L556.137 31.1914L558.497 30.9795L563.239 30.5477L565.62 30.3354L568.006 30.1304L570.397 29.9367L572.792 29.758L575.19 29.598L577.589 29.4607L579.989 29.3495L582.388 29.268L584.786 29.2197L587.182 29.2079L589.573 29.2357L591.958 29.3062L594.337 29.4221L596.708 29.5859L599.07 29.8001L601.421 30.0668L603.761 30.3879L606.087 30.765L608.399 31.1995L610.696 31.6925L612.976 32.2448L615.238 32.8569L617.482 33.5292L619.707 34.2615L621.912 35.0536L624.096 35.9049L626.258 36.8145L628.399 37.7812L630.517 38.8037L632.614 39.8804L634.687 41.0092L636.738 42.1882L638.767 43.4148L640.773 44.6867L642.758 46.001L644.722 47.3548L646.665 48.745L648.588 50.1684L650.493 51.6218L652.379 53.1016L654.249 54.6044L656.103 56.1266L657.943 57.6646L659.77 59.2147L661.586 60.7735L663.392 62.3372L665.19 63.9024L668.768 67.0233L670.551 68.5723L672.334 70.1095L674.117 71.6319L675.902 73.1365L677.691 74.6207L679.486 76.0821L681.289 77.5183L683.101 78.9273L684.924 80.3071L686.759 81.6563L688.608 82.9734L690.472 84.2573L692.353 85.5071L694.251 86.7223L696.167 87.9025L698.103 89.0476L700.059 90.1579L702.035 91.2336L704.033 92.2756L706.052 93.2847L708.092 94.2621L710.154 95.2093L712.237 96.1278L714.341 97.0196L716.465 97.8867L718.608 98.7312L720.769 99.5556L722.949 100.362L725.144 101.155L727.354 101.935L729.578 102.705L731.813 103.47L734.058 104.232L738.569 105.759L740.832 106.531L743.096 107.313L745.359 108.107L747.618 108.917L749.872 109.747L752.118 110.598L754.354 111.474L756.576 112.378L758.783 113.312L760.971 114.279L763.14 115.28L765.285 116.319L767.405 117.397L769.498 118.517L771.561 119.678L773.593 120.884L775.591 122.135L777.554 123.432L779.48 124.776L781.368 126.167L783.217 127.605L785.024 129.091L786.79 130.625L788.514 132.205L790.195 133.832L791.832 135.504L793.427 137.22L794.978 138.98L796.486 140.781L797.951 142.622L799.375 144.502L800.758 146.417L802.101 148.367L803.406 150.348L804.675 152.359L805.908 154.397L807.108 156.459L808.276 158.543L809.416 160.646L810.529 162.765L811.618 164.898L812.686 167.041L813.734 169.193L814.767 171.35L815.786 173.51L816.795 175.669L819.789 182.123L820.786 184.258L821.788 186.381L822.797 188.491L823.815 190.584L824.847 192.661L825.893 194.719L826.958 196.756L828.042 198.772L829.149 200.766L830.28 202.736L831.437 204.683L832.622 206.605L833.836 208.503L835.08 210.376L836.356 212.225L837.663 214.049L839.004 215.85L840.378 217.628L841.784 219.384L843.224 221.119L844.696 222.834L846.199 224.53L847.734 226.209L849.298 227.872L850.89 229.521L852.508 231.158L854.152 232.784L855.818 234.402L857.504 236.014L859.209 237.62L860.928 239.225L862.66 240.829L867.901 245.659L869.652 247.282L871.4 248.915L873.141 250.56L874.871 252.219L876.588 253.893L878.288 255.584L879.967 257.294L881.623 259.024L883.251 260.776L884.848 262.55L886.412 264.349L887.939 266.172L889.426 268.022L890.871 269.898L892.271 271.8L893.624 273.731L894.927 275.689L896.179 277.675L897.377 279.689L898.521 281.73L899.61 283.799L900.641 285.895L901.615 288.016L902.531 290.164L903.389 292.336L904.189 294.532L904.931 296.751L905.617 298.991L906.246 301.251L906.82 303.531L907.341 305.828L907.811 308.142L908.231 310.47L908.603 312.811L908.93 315.164L909.215 317.527L909.46 319.899L909.668 322.277L909.843 324.661L909.988 327.049L910.106 329.438L910.2 331.829L910.275 334.219L910.334 336.607L910.38 338.992L910.418 341.372L910.483 346.115L910.517 348.476L910.557 350.828L910.607 353.171L910.67 355.505L910.749 357.828L910.848 360.14L910.969 362.441L911.114 364.731L911.288 367.009L911.491 369.276L911.727 371.531L911.996 373.776L912.302 376.009L912.644 378.232L913.024 380.445L913.443 382.648L913.901 384.843L914.399 387.029L914.936 389.208L915.512 391.381L916.127 393.547L916.78 395.709L917.468 397.866L918.192 400.021L918.948 402.173L919.736 404.324L920.552 406.475L921.395 408.626L922.261 410.78L923.148 412.935L924.052 415.094L924.97 417.257L925.899 419.425L927.775 423.777L928.715 425.964L929.65 428.157L930.577 430.359L931.493 432.568L932.393 434.786L933.272 437.013L934.129 439.248L934.958 441.492L935.756 443.745L936.52 446.006L937.245 448.276L937.929 450.554L938.569 452.84L939.161 455.134L939.703 457.434L940.193 459.741L940.627 462.053L941.005 464.371L941.324 466.693L941.583 469.019L941.78 471.348L941.915 473.679L941.987 476.011L942 477.497Z" fill="#F8D07C"/>
<path d="M874.38 479.87C874.38 697.643 696.919 874.24 477.94 874.24C258.961 874.24 81.5 697.643 81.5 479.87C81.5 262.097 258.961 85.5 477.94 85.5C696.919 85.5 874.38 262.097 874.38 479.87Z" fill="#F68620" stroke="#984428" stroke-width="13"/>
</svg>
